<svg xmlns="http://www.w3.org/2000/svg" viewBox="0 0 340 90" width="340" height="90">
  <defs>
    <style>@import url('https://fonts.googleapis.com/css2?family=Fira+Code:wght@700&amp;display=swap');</style>
  <filter id="outline" x="-200" y="-200" width="2448" height="2198" filterUnits="userSpaceOnUse" color-interpolation-filters="sRGB">
    <feMorphology in="SourceAlpha" operator="dilate" radius="14" result="dilated"/>
    <feFlood flood-color="#3a6012" result="color"/>
    <feComposite in="color" in2="dilated" operator="in" result="border"/>
    <feMerge>
      <feMergeNode in="border"/>
      <feMergeNode in="SourceGraphic"/>
    </feMerge>
  </filter>

  </defs>
  <svg x="5" y="10" width="80" height="70" viewBox="85 89 1677 1545" overflow="visible">
    <g filter="url(#outline)" overflow="visible">

<g filter="url(#outline)" overflow="visible">
<path transform="translate(0,0)" fill="#a8d44f" d="M 781.746 1633.45 C 774.533 1636.06 735.979 1634.62 726.271 1634.93 C 667.631 1636.86 609.696 1630.9 551.97 1621.74 C 496.716 1612.97 443.041 1602.38 389.887 1584.63 C 373.928 1579.31 351.613 1575.24 336.401 1568.34 C 312.601 1557.55 290.166 1543.48 265.67 1533.6 C 181.728 1491.1 105.733 1434.32 85.7765 1336.77 C 73.9227 1278.83 83.7611 1216.54 100.766 1160.65 C 121.845 1091.37 149.412 1024.1 173.904 955.913 C 197.241 889.135 222.194 822.933 248.743 757.365 C 291.637 649.826 337.567 548.912 414.275 459.94 C 483.039 380.182 561.645 333.878 652.745 283.023 L 803.436 199.844 C 851.418 173.185 910.678 135.568 959.633 113.103 C 982.536 102.399 1006.65 94.5162 1031.46 89.6273 C 1084.88 78.8878 1129.61 87.1339 1175.23 117.414 C 1218.54 146.156 1254.37 181.338 1288.21 220.244 C 1301.29 235.286 1318.12 248.446 1330.31 265.345 C 1337.56 273.434 1347.08 280.894 1354.11 289.005 C 1461.17 412.48 1574.4 535.378 1661.31 674.271 C 1704.68 743.58 1742.02 829.394 1758.2 909.865 C 1768.19 959.579 1769.97 1026.34 1761.54 1076.65 C 1751.38 1100.79 1734.98 1128.73 1720.46 1150.27 C 1705.54 1166.57 1692.11 1192.36 1676.79 1207.42 C 1661.93 1222.03 1645.59 1243.44 1631.41 1256.9 C 1553.39 1330.97 1463.91 1388.87 1370.67 1441.43 C 1330.96 1464.13 1290.36 1485.24 1248.97 1504.72 C 1185.82 1533.83 1111.95 1563.19 1045.66 1583.87 C 1001.65 1597.42 956.915 1608.46 911.659 1616.95 C 874.981 1625.54 837.179 1630.32 799.556 1632.43 C 793.632 1632.76 787.644 1632.78 781.746 1633.45 z"/>
<path transform="translate(0,0)" fill="#cff779" d="M 260.175 1367.35 C 257.689 1362.76 242.096 1357.48 236.584 1355.1 C 224.621 1349.95 212.914 1344.23 201.503 1337.96 C 191.258 1332.29 181.723 1325.43 173.096 1317.51 C 108.276 1258.14 133.683 1164.1 157.168 1091.38 C 180.044 1020.54 217.393 952.881 245.456 884.014 C 306.718 733.399 352.676 563.906 481.46 454.66 C 494.925 443.238 508.052 432.906 521.9 421.981 C 536.797 409.802 551.235 393.746 567.973 384.149 C 620.843 356.038 674.515 322.462 728.563 296.928 C 781.467 271.935 831.73 247.757 882.483 218.036 C 922.644 194.517 963.811 153.566 1010.53 147.087 C 1036.75 143.45 1049.81 175.753 1050.4 196.822 C 1053.3 223.054 1044.35 248.106 1041.3 273.448 C 1036.82 310.631 1020.49 365.392 1021.18 401.66 C 1017.99 406.142 1018.06 409.426 1017.84 415.003 C 1014.02 434.089 1012.33 455.6 1009.33 475.03 C 997.655 550.623 987.599 626.462 972.792 701.566 C 936.85 882.655 875.099 1058.7 801.122 1227.56 C 787.246 1264.1 779.782 1299.16 758.518 1332.74 C 694.247 1434.23 556.745 1410.07 455.913 1399.25 C 399.781 1393.22 343.912 1388.12 289.579 1372.66 C 282.574 1370.67 265.964 1365.02 260.175 1367.35 z"/>
<path transform="translate(0,0)" fill="#a8d44f" d="M 690.896 468.057 C 729.267 467.551 725.555 513.291 713.882 537.455 C 704.91 556.027 693.19 563.936 674.025 570.425 C 639.306 576.415 638.42 521.443 651.15 501.63 C 661.198 485.991 672.596 473.141 690.896 468.057 z"/>
<path transform="translate(0,0)" fill="#a8d44f" d="M 537.622 1240.29 C 578.735 1236.47 571.127 1300.36 527.347 1312.04 C 522.374 1312.37 516.307 1312.84 511.974 1310.09 C 494.35 1298.89 500.613 1271.34 510.511 1256.92 C 517.885 1246.18 525.469 1242.68 537.622 1240.29 z"/>
<path transform="translate(0,0)" fill="#a8d44f" d="M 329.652 888.139 C 344.653 887.374 352.518 890.166 360.574 902.976 C 361.747 922.964 360.276 947.377 339.205 956.63 C 327.141 958.923 319.477 956.383 314.191 944.23 C 308.982 932.303 308.982 918.744 314.193 906.818 C 317.022 900.183 322.757 890.895 329.652 888.139 z"/>
<path transform="translate(0,0)" fill="#a8d44f" d="M 771.166 1174.2 C 805.784 1177.42 776.959 1217.36 757.076 1223.83 C 726.764 1223.86 741.984 1180.65 771.166 1174.2 z"/>
<path transform="translate(0,0)" fill="#a8d44f" d="M 515.209 507.943 L 518.939 508.146 C 535.033 517.412 522.706 535.748 510.734 540.049 C 495.206 539.422 497.471 532.225 498.669 519.505 C 504.723 512.978 507.457 511.742 515.209 507.943 z"/>
<path transform="translate(0,0)" fill="#a8d44f" d="M 676.231 771.034 C 696.009 770.513 694.201 790.646 677.222 800.599 C 656.163 801.572 661.341 780.374 676.231 771.034 z"/>
<path transform="translate(0,0)" fill="#a8d44f" d="M 830.995 334.23 C 838.097 333.489 849.482 331.691 847.511 344.151 C 846.47 350.737 840.23 356.182 834.715 359.632 C 815.017 367.129 813.539 344.412 830.995 334.23 z"/>
<path transform="translate(0,0)" fill="#a8d44f" d="M 218.621 1283 C 239.291 1285.87 223.463 1303.94 213.69 1310.31 C 206.863 1309.23 201.193 1305.55 203.4 1297.58 C 205.793 1288.94 211.263 1286.65 218.621 1283 z"/>
<path transform="translate(0,0)" fill="#a8d44f" d="M 394.983 1202.77 C 410.857 1205.45 401.281 1223.34 389.944 1226.24 C 386.93 1225.69 386.002 1225.56 383.053 1224.4 C 378.662 1216.39 389.192 1207.66 394.983 1202.77 z"/>
<path transform="translate(0,0)" fill="#8ab83d" d="M 978.964 122.244 C 1123.91 56.9616 1198.12 148.148 1290.2 245.263 C 1306.01 260.882 1320.66 276.983 1335.51 293.489 C 1432.24 401.021 1530.48 512.402 1613.89 630.728 C 1691.25 740.483 1755.83 877.744 1751.82 1014.69 C 1751.63 1021.04 1753.22 1049.59 1751.37 1053.72 C 1750.72 1050.09 1750.97 1028.02 1750.98 1022.99 C 1728.9 1023.11 1705.69 1021.97 1683.74 1019.63 C 1674.99 1018.7 1666.45 1016.31 1657.68 1015.46 C 1639.15 1013.68 1619.92 1012.81 1601.29 1012.01 C 1587.93 1011.44 1574.54 1011.95 1561.18 1011.36 C 1536.62 1010.29 1512.74 1008.45 1488.06 1008.79 C 1469.24 1009.06 1450.56 1011.69 1431.72 1011.77 C 1380.11 1011.98 1328.21 1010.47 1276.64 1011.98 C 1262.44 1012.39 1248.27 1013.87 1234.06 1014.32 C 1217.13 1014.85 1200.18 1014.39 1183.25 1014.9 C 1148.14 1015.97 1112.64 1018.15 1077.63 1021 C 1069.34 1021.67 1002.86 1028.33 999.441 1027.37 C 1000.13 1023.06 1010.63 1022.53 1014.24 1020.93 C 1121.39 973.537 1232.84 947.339 1346.97 923.258 C 1359.01 920.716 1382.07 912.884 1393.95 909.124 C 1414.45 902.63 1482.35 887.655 1494.36 875.14 C 1495.94 864.142 1418.97 708.828 1408.58 689.646 L 1406.27 687.983 C 1401.3 688.295 1399.88 688.769 1396.04 685.838 C 1392.61 680.359 1394.75 674.149 1395.9 667.559 C 1386.76 646.347 1367.54 613.674 1355.96 592.557 C 1325.87 538.33 1295.29 484.381 1264.21 430.714 C 1260.88 432.039 1256.97 433.247 1253.54 434.402 C 1243.34 430.932 1235.55 428.516 1233.32 416.425 C 1231.47 406.424 1233.92 396.924 1239.43 388.671 L 1194.53 305.528 C 1158.06 239.086 1124.43 183.727 1054.14 148.342 C 1040.21 141.493 1025.66 136.003 1010.69 131.946 C 1002.1 129.565 987.388 126.135 980.071 122.766 L 978.964 122.244 z"/>



<path transform="translate(0,0)" fill="#e2ffaa" d="M 1017.84 415.003 C 1020.28 415.678 1020.13 415.907 1021.81 417.914 C 1022.08 453.989 1022.17 490.065 1022.06 526.141 C 1022.06 549.784 1022.22 573.484 1021.87 597.116 C 1021.46 608.287 1020.07 619.473 1019.54 630.629 C 1015.71 710.893 1006.65 791.743 991.097 870.596 C 969.373 980.758 934.26 1089.59 896.451 1195.27 C 866.981 1277.64 828.929 1387.46 768.433 1453.02 C 751.16 1468.49 734.928 1481.43 712.26 1488.1 C 684.276 1497.68 644.544 1488.48 615.984 1482.94 C 525.707 1465.45 435.696 1441.51 349.138 1410.4 C 331.508 1404.06 273.741 1378.87 260.175 1367.35 C 265.964 1365.02 282.574 1370.67 289.579 1372.66 C 343.912 1388.12 399.781 1393.22 455.913 1399.25 C 556.745 1410.07 694.247 1434.23 758.518 1332.74 C 779.782 1299.16 787.246 1264.1 801.122 1227.56 C 875.099 1058.7 936.85 882.655 972.792 701.566 C 987.599 626.462 997.655 550.623 1009.33 475.03 C 1012.33 455.6 1014.02 434.089 1017.84 415.003 z"/>
<path transform="translate(0,0)" fill="#3a6012" d="M 781.746 1633.45 C 774.533 1636.06 735.979 1634.62 726.271 1634.93 C 667.631 1636.86 609.696 1630.9 551.97 1621.74 C 496.716 1612.97 443.041 1602.38 389.887 1584.63 C 373.928 1579.31 351.613 1575.24 336.401 1568.34 C 312.601 1557.55 290.166 1543.48 265.67 1533.6 C 181.728 1491.1 105.733 1434.32 85.7765 1336.77 C 73.9227 1278.83 83.7611 1216.54 100.766 1160.65 C 121.845 1091.37 149.412 1024.1 173.904 955.913 C 197.241 889.135 222.194 822.933 248.743 757.365 C 291.637 649.826 337.567 548.912 414.275 459.94 C 483.039 380.182 561.645 333.878 652.745 283.023 L 803.436 199.844 C 851.418 173.185 910.678 135.568 959.633 113.103 C 982.536 102.399 1006.65 94.5162 1031.46 89.6273 C 1084.88 78.8878 1129.61 87.1339 1175.23 117.414 C 1218.54 146.156 1254.37 181.338 1288.21 220.244 C 1301.29 235.286 1318.12 248.446 1330.31 265.345 C 1337.56 273.434 1347.08 280.894 1354.11 289.005 C 1461.17 412.48 1574.4 535.378 1661.31 674.271 C 1704.68 743.58 1742.02 829.394 1758.2 909.865 C 1768.19 959.579 1769.97 1026.34 1761.54 1076.65 C 1751.38 1100.79 1734.98 1128.73 1720.46 1150.27 C 1705.54 1166.57 1692.11 1192.36 1676.79 1207.42 C 1661.93 1222.03 1645.59 1243.44 1631.41 1256.9 C 1553.39 1330.97 1463.91 1388.87 1370.67 1441.43 C 1330.96 1464.13 1290.36 1485.24 1248.97 1504.72 C 1185.82 1533.83 1111.95 1563.19 1045.66 1583.87 C 1001.65 1597.42 956.915 1608.46 911.659 1616.95 C 911.593 1616.34 910.768 1614.4 910.549 1614.11 C 906.369 1608.51 908.128 1606.53 902.173 1604.75 L 902.017 1604.35 C 912.34 1604.12 945.142 1595.67 956.563 1593.04 C 1082.03 1563.46 1199.24 1515.37 1313.84 1455.22 C 1483.61 1366.11 1658.08 1251.41 1746.98 1074.74 C 1749.21 1070.31 1749.2 1060.03 1751.37 1053.72 C 1753.22 1049.59 1751.63 1021.04 1751.82 1014.69 C 1755.83 877.744 1691.25 740.483 1613.89 630.728 C 1530.48 512.402 1432.24 401.021 1335.51 293.489 C 1320.66 276.983 1306.01 260.882 1290.2 245.263 C 1198.12 148.148 1123.91 56.9616 978.964 122.244 C 955.7 129.452 917.294 151.873 895.753 164.202 C 865.812 181.489 835.74 198.548 805.54 215.379 C 746.026 248.376 685.725 280.133 627.115 314.732 C 561.621 353.395 493.135 394.651 441.555 451.726 C 299.844 608.536 241.762 824.093 168.315 1017.78 C 129.743 1119.71 72.5696 1241.99 104.985 1352.12 C 135.417 1455.52 244.316 1507.12 333.627 1550.07 C 358.667 1562.11 393.592 1571.02 420.676 1578.56 C 533.669 1610.85 651.037 1625.17 768.478 1620.99 C 772.528 1621.12 775.939 1621.62 779.67 1620.22 C 779.841 1624.26 779.498 1630.64 781.746 1633.45 z"/>
<path transform="translate(0,0)" fill="#8ab83d" d="M 768.433 1453.02 C 777.885 1460.79 794.598 1481.11 803.343 1491.23 L 875.102 1575.72 C 879.983 1581.42 896.767 1601.75 902.017 1604.35 L 902.173 1604.75 C 908.128 1606.53 906.369 1608.51 910.549 1614.11 C 910.768 1614.4 911.593 1616.34 911.659 1616.95 C 874.981 1625.54 837.179 1630.32 799.556 1632.43 C 793.632 1632.76 787.644 1632.78 781.746 1633.45 C 779.498 1630.64 779.841 1624.26 779.67 1620.22 C 775.939 1621.62 772.528 1621.12 768.478 1620.99 C 771.204 1620.58 774.472 1620.5 776.434 1618.98 C 761.203 1589.89 748.245 1560.54 733.783 1531.14 C 726.702 1516.74 718.989 1502.68 712.26 1488.1 C 734.928 1481.43 751.16 1468.49 768.433 1453.02 z"/>
<path transform="translate(0,0)" fill="#3a6012" d="M 779.67 1620.22 C 784.856 1617.82 792.601 1618.69 798.625 1618.25 C 830.94 1615.88 870.39 1611.06 902.173 1604.75 C 908.128 1606.53 906.369 1608.51 910.549 1614.11 C 910.768 1614.4 911.593 1616.34 911.659 1616.95 C 874.981 1625.54 837.179 1630.32 799.556 1632.43 C 793.632 1632.76 787.644 1632.78 781.746 1633.45 C 779.498 1630.64 779.841 1624.26 779.67 1620.22 z"/>
<path transform="translate(0,0)" fill="#e2ffaa" d="M 1017.84 415.003 C 1018.06 409.426 1017.99 406.142 1021.18 401.66 C 1021.59 407.388 1021.76 412.17 1021.81 417.914 C 1020.13 415.907 1020.28 415.678 1017.84 415.003 z"/>
<path transform="translate(0,0)" fill="#8ab83d" d="M 1171.58 605.243 C 1180.44 604.841 1189.03 608.868 1196.81 612.558 C 1206.36 628.135 1206.15 637.804 1204.99 655.831 C 1203.56 677.803 1189.16 705.454 1165.31 708.54 C 1134 705.433 1123.82 653.938 1139.41 630.826 C 1150.22 614.804 1152.58 611.122 1171.58 605.243 z"/>
<path transform="translate(0,0)" fill="#8ab83d" d="M 1610.53 1025.25 C 1649.87 1028.67 1618.14 1101.19 1580.61 1109.17 C 1549.94 1110.79 1565.11 1072.21 1574.1 1057.77 C 1583.71 1042.33 1590.4 1027.9 1610.53 1025.25 z"/>
<path transform="translate(0,0)" fill="#8ab83d" d="M 1108.13 1412.14 C 1122.73 1410.49 1127.35 1421.01 1134 1432.19 C 1129.36 1445.98 1121.44 1458.7 1107.12 1463.82 C 1092.28 1464.95 1089.84 1461.51 1082.1 1449.75 C 1080.84 1428.15 1089.27 1420.51 1108.13 1412.14 z"/>
<path transform="translate(0,0)" fill="#8ab83d" d="M 476.177 1507.08 C 490.455 1506.45 489.588 1510.16 495.408 1523.03 C 492.162 1538.35 477.22 1557.18 462.347 1562.29 L 460.608 1561.7 C 458.161 1559.24 458.24 1554.62 457.821 1550.92 C 454.133 1548.12 447.397 1543.55 445.63 1539.43 C 436.83 1518.91 462.933 1512.03 476.177 1507.08 z"/>
<path transform="translate(0,0)" fill="#8ab83d" d="M 1143.05 504.596 C 1152.94 504.562 1152.13 510.693 1165.91 505.837 C 1178.27 501.484 1184.84 512.042 1179.97 523.762 C 1176.3 532.601 1175.77 534.039 1169.28 541.05 C 1166.05 543.584 1164.57 544.459 1160.52 545.09 C 1123.32 550.886 1125.68 526.333 1143.05 504.596 z"/>
<path transform="translate(0,0)" fill="#8ab83d" d="M 1044.3 1276.04 C 1048.29 1275.8 1051.06 1275.48 1054.16 1277.9 C 1058.41 1284.53 1056.5 1293.7 1055.98 1302.08 C 1050.36 1309.08 1048.14 1312.18 1039.78 1316.19 C 1016.13 1313.34 1031.21 1284.04 1044.3 1276.04 z"/>
<path transform="translate(0,0)" fill="#8ab83d" d="M 1248.62 1256.9 C 1274.97 1258.92 1264.05 1278.8 1248.77 1286.86 C 1222.87 1288.42 1235.45 1264.65 1248.62 1256.9 z"/>
<path transform="translate(0,0)" fill="#8ab83d" d="M 1261.15 1142.98 C 1265.87 1143.05 1266.5 1142.68 1269.99 1144.94 C 1276.66 1155.47 1266.11 1166.7 1257.61 1172.16 C 1254.21 1172.9 1255.79 1173.06 1252.66 1171.84 C 1249.76 1168.21 1249.12 1163.5 1247.97 1158.84 C 1252.16 1151.61 1254.99 1148.39 1261.15 1142.98 z"/>
<path transform="translate(0,0)" fill="#8ab83d" d="M 1073.04 1166.07 C 1076.16 1166.2 1080.05 1165.83 1081.2 1169.31 C 1083.94 1177.66 1077.06 1189.93 1069.13 1192.94 C 1050.42 1187.57 1060.5 1172.06 1073.04 1166.07 z"/>
<path transform="translate(0,0)" fill="#8ab83d" d="M 1249.18 868.855 C 1254.18 868.666 1255.2 868.493 1258.93 872.003 C 1261.94 880.157 1253.29 889.498 1247.39 894.265 C 1242.4 894.309 1240.55 894.215 1237.2 890.335 C 1234.52 881.06 1241.92 873.358 1249.18 868.855 z"/>
</g>
    </g>
  </svg>
  <text x="95" y="50" dominant-baseline="middle"
    font-family="'Fira Code', monospace"
    font-size="64" font-weight="700" fill="none" stroke="rgba(255,255,255,0.5)" stroke-width="1" letter-spacing="-1">Archie</text>
</svg>