<svg xmlns="http://www.w3.org/2000/svg" viewBox="0 0 350 90" width="350" height="90"><defs><style>@import url(https://fonts.googleapis.com/css2?family=Fira+Code:wght@700&amp;display=swap);</style></defs><svg y="5" width="118" height="80" viewBox="53 53 1297 875"><path fill="#8ab83d" d="M108.545 53.274c6.525-.779 24.639-.413 31.711-.418l62.715.024 66.651-.237c10.783-.036 29.469-.587 39.775.932a65.4 65.4 0 0 1 29.417 11.931 58.6 58.6 0 0 1 23.438 38.107c1.564 10.202.564 52.31.602 65.068l.216 56.622c.052 14.905 1.518 31.874-4.218 45.825-9.255 22.51-27.503 34.838-51.066 38.488-10.666.902-26.827.397-38.071.401l-67.549.04-57.765-.007c-22.705-.016-45.408 2.363-64.835-11.653a62.04 62.04 0 0 1-25.538-41.378c-2.025-12.894-.914-51.112-.947-66.278l-.156-50.578c-.025-10.653-.534-24.577 1.201-34.837a64.1 64.1 0 0 1 11.59-27.44c10.7-14.531 25.306-21.854 42.829-24.612"/><path fill="#cff779" d="M470.654 53.217c8.96-.694 23.555-.252 32.843-.255l59.77-.143 66.412-.134c21.142-.007 46.578-2.475 65.362 8.56 36.107 21.213 30.909 55.098 30.911 90.711.001 14.262.005 28.568-.011 42.835-.529 48.649 9.962 100.325-52.19 114.42-8.145 1.247-25.49.84-34.252.831l-60.246-.053-70.95.082c-23.106.01-44.944 2.807-65.147-10.898a62.7 62.7 0 0 1-26.265-39.783c-2.44-12.822-1.25-53.841-1.29-69.457l-.164-50.121c-.026-10.074-.471-23.812 1.028-33.566a63.95 63.95 0 0 1 10.526-26.642c10.748-15.567 25.427-23.152 43.663-26.387"/><path fill="#8ab83d" d="M833.34 53.27c11.369-.842 26.38-.39 38.123-.391l67.658-.042 58.35-.204c10.679-.03 26.459-.526 36.769.932a65.15 65.15 0 0 1 29 11.557 59.45 59.45 0 0 1 24.23 39.468c1.58 10.516.57 51.44.61 64.415l.22 55.609c.03 8.983.52 24.787-.8 33.336a61.8 61.8 0 0 1-11.46 26.999c-10.91 14.683-25.36 21.884-43.09 24.633-12.32.861-28.44.446-41.162.448l-70.506-.008-55.039.032c-10.838-.007-20.951.126-31.77-.712-26.356-1.195-52.464-25.293-55.393-51.677-2.283-20.558-.987-45.607-1.034-66.864l-.169-51.039c-.027-10.278-.508-24.08 1.111-33.991a64.6 64.6 0 0 1 11.326-27.417c10.81-14.894 25.256-22.1 43.026-25.083"/><path fill="#cff779" d="M292.735 362.332q2.62-.13 5.242-.163l120.569-.075c8.455-.001 17.071-.257 25.508.001 31.59.966 58.451-5.57 83.112 19.224a57.8 57.8 0 0 1 15.968 29.179c2.627 12.054 1.438 46.601 1.377 60.618l.21 82.182c-.165 32.586-21.444 65.086-56.471 64.869-11.712-.296-25.154 1.228-37.235 1.339l-104.526.124c-19.5.061-45.786.598-64.629-2.519-30.954-5.121-48.6-37.221-47.817-66.385.88-32.771-.359-64.14.038-96.754.155-12.761-.879-26.444 1.189-38.768a64.4 64.4 0 0 1 12.322-28.723c11.591-15.121 26.717-21.746 45.143-24.149"/><path fill="#8ab83d" d="M655.719 362.343c11.309-.513 24.27-.215 35.695-.222l98.322-.034c23.248 0 51.24-1.739 73.693 3.008 19.082 4.034 38.378 25.081 42.33 43.843 1.844 8.758 1.446 18.345 1.386 27.319-.728 40.921.352 81.906-.012 122.81a60.6 60.6 0 0 1-18.887 43.545c-10.27 9.877-23.685 15.751-37.996 15.557-11.24-.25-24.557 1.216-36.235 1.317l-102.925.093c-21.748.086-44.249-.019-65.884-2.381-7.599-.83-16.488-5.822-22.521-10.248-18.07-13.254-25.964-33.719-25.668-55.681.218-32.204.086-64.281.012-96.47-.029-12.658-.769-27.294 1.286-39.625a64.3 64.3 0 0 1 12.297-28.691c11.555-15.09 26.705-21.783 45.107-24.14"/><path fill="#cff779" d="M1018.49 362.314c1.18-.054 2.35-.096 3.53-.124 57.31-1.06 115.12.617 172.48-.101 8.04-.101 18.03-.146 25.81 1.747 56.92 13.843 49.85 60.52 49.64 104.991l.19 73.238c.06 24.553.02 40.327-18.92 60.037-9.46 9.839-24.15 16.227-37.97 16.067-11.4-.289-24.9 1.23-36.74 1.338l-103.63.118c-20.9.07-42.86-.217-63.74-2.228-8.04-.775-17.118-5.33-23.586-10.104a62.92 62.92 0 0 1-24.942-41.399c-1.802-12.972-.67-50.256-.7-65.554l-.169-49.621c-.04-10.695-.536-25.741 1.144-35.916a63.15 63.15 0 0 1 12.106-28.164c11.71-15.34 26.857-21.94 45.497-24.325"/><path fill="#8ab83d" d="M111.083 671.357c7.55-.792 23.254-.341 31.341-.336l59.666.06 65.543-.079c10.896.002 33.411-.136 43.827 1.425a60.9 60.9 0 0 1 26.907 11.104 59.28 59.28 0 0 1 23.944 38.608c1.49 9.42.491 50.53.523 62.593l.227 58.299c.056 15.133 1.577 32.318-4.253 46.481-9.22 22.396-27.063 34.681-50.558 38.34-66.515-.654-136.314 2.611-202.86-.692-24.743-1.228-49.72-29.005-51.584-53.282-1.575-20.507-.549-44.567-.725-65.456 1.22-25.005-3.027-61.455 1.135-85.187a63.5 63.5 0 0 1 12.356-28.09c11.45-14.788 26.336-21.532 44.511-23.788"/><path fill="#cff779" d="M486.326 671.553c3.954-.315 9.157-.435 13.149-.458l106.808-.065c21.058.005 42.108-.281 63.13 1.023 16.297 1.011 26.845 6.633 38.529 17.627 22.82 21.471 18.04 53.253 17.89 81.693l.136 68.134c.088 26.931 2.814 49.926-18.528 70.836-16.385 16.054-31.924 17.73-53.179 17.594-36.759 1.369-75.982-.005-113.131.431-24.563-1.04-53.012 1.961-77.095-2.015-28.726-4.744-48.938-34.064-48.379-62.039.567-28.359-1.139-56.475-.201-84.408 1.029-30.615-6.252-65.262 17.302-89.065 17.039-17.469 30.741-18.671 53.569-19.288"/><path fill="#8ab83d" d="m858.357 671.45.983-.062c4.043-.238 9.062-.164 13.2-.077 55.338 1.286 113.171-2.747 168.14 2.259 25.03 2.281 48.52 34.47 47.38 58.55-1.02 21.456 1.13 45.203-.1 66.409-1.37 23.816 3.22 58.469-1.28 80.43a61.16 61.16 0 0 1-15.12 29.312c-18.25 19.45-37.01 19.116-60.86 19.678l-114.614.072c-19.54.004-39.06.251-58.569-.682-15.384-.737-26.729-5.024-38.267-15.323-14.142-12.622-20.652-28.823-21.024-47.517-.515-25.854-.069-51.701-.216-77.558.161-15.421-1.091-52.157 1.597-65.478a63.2 63.2 0 0 1 15.148-29.644c19.649-21.421 37.934-19.438 63.602-20.369"/></svg><text x="132" y="45" dominant-baseline="middle" font-family="'Fira Code', monospace" font-size="60" font-weight="700" fill="#f0f2f8" letter-spacing="-1">Archie</text></svg>